<?xml version="1.0" encoding="us-ascii" standalone="no"?><svg xmlns="http://www.w3.org/2000/svg" xmlns:xlink="http://www.w3.org/1999/xlink" contentStyleType="text/css" height="678px" preserveAspectRatio="none" style="width:941px;height:678px;background:#FFFFFF;" version="1.1" viewBox="0 0 941 678" width="941px" zoomAndPan="magnify"><defs/><g><text fill="#000000" font-family="sans-serif" font-size="14" font-weight="bold" lengthAdjust="spacing" textLength="185" x="371.25" y="23.5352">Panoptichain Architecture</text><!--cluster posv1--><g id="cluster_posv1"><rect fill="none" height="139.98" rx="2.5" ry="2.5" style="stroke:#444444;stroke-width:1.0;stroke-dasharray:7.0,7.0;" width="245" x="144" y="532.4183"/><text fill="#444444" font-family="sans-serif" font-size="16" font-weight="bold" lengthAdjust="spacing" textLength="49" x="242" y="569.887">PoSv1</text><text fill="#444444" font-family="sans-serif" font-size="12" font-weight="bold" lengthAdjust="spacing" textLength="53" x="240" y="584.8636">[system]</text></g><!--cluster gke--><g id="cluster_gke"><rect fill="none" height="425.93" rx="2.5" ry="2.5" style="stroke:#444444;stroke-width:1.0;stroke-dasharray:7.0,7.0;" width="328" x="307" y="44.4883"/><text fill="#444444" font-family="sans-serif" font-size="16" font-weight="bold" lengthAdjust="spacing" textLength="217" x="362.5" y="81.957">Google Kubernetes Engine</text><text fill="#444444" font-family="sans-serif" font-size="12" font-weight="bold" lengthAdjust="spacing" textLength="53" x="444.5" y="96.9336">[system]</text></g><!--entity bor--><g id="elem_bor"><rect fill="#438DD5" height="52.9766" rx="2.5" ry="2.5" style="stroke:#3C7FC0;stroke-width:0.5;" width="85" x="160.5" y="603.4183"/><text fill="#FFFFFF" font-family="sans-serif" font-size="12" font-style="italic" lengthAdjust="spacing" textLength="65" x="170.5" y="625.0198">&#171;container&#187;</text><text fill="#FFFFFF" font-family="sans-serif" font-size="16" font-weight="bold" lengthAdjust="spacing" textLength="27" x="189.5" y="643.0198">Bor</text></g><!--entity heimdall--><g id="elem_heimdall"><rect fill="#438DD5" height="52.9766" rx="2.5" ry="2.5" style="stroke:#3C7FC0;stroke-width:0.5;" width="92" x="281" y="603.4183"/><text fill="#FFFFFF" font-family="sans-serif" font-size="12" font-style="italic" lengthAdjust="spacing" textLength="65" x="294.5" y="625.0198">&#171;container&#187;</text><text fill="#FFFFFF" font-family="sans-serif" font-size="16" font-weight="bold" lengthAdjust="spacing" textLength="72" x="291" y="643.0198">Heimdall</text></g><!--entity panoptichain--><g id="elem_panoptichain"><rect fill="#438DD5" height="52.9766" rx="2.5" ry="2.5" style="stroke:#3C7FC0;stroke-width:0.5;" width="127" x="330.5" y="401.4483"/><text fill="#FFFFFF" font-family="sans-serif" font-size="12" font-style="italic" lengthAdjust="spacing" textLength="65" x="361.5" y="423.0498">&#171;container&#187;</text><text fill="#FFFFFF" font-family="sans-serif" font-size="16" font-weight="bold" lengthAdjust="spacing" textLength="107" x="340.5" y="441.0498">Panoptichain</text></g><!--entity dd_agent--><g id="elem_dd_agent"><rect fill="#438DD5" height="52.9766" rx="2.5" ry="2.5" style="stroke:#3C7FC0;stroke-width:0.5;" width="143" x="322.5" y="258.4683"/><text fill="#FFFFFF" font-family="sans-serif" font-size="12" font-style="italic" lengthAdjust="spacing" textLength="65" x="361.5" y="280.0698">&#171;container&#187;</text><text fill="#FFFFFF" font-family="sans-serif" font-size="16" font-weight="bold" lengthAdjust="spacing" textLength="69" x="332.5" y="298.0698">Datadog</text><text fill="#FFFFFF" font-family="sans-serif" font-size="16" font-weight="bold" lengthAdjust="spacing" textLength="5" x="401.5" y="298.0698">&#160;</text><text fill="#FFFFFF" font-family="sans-serif" font-size="16" font-weight="bold" lengthAdjust="spacing" textLength="49" x="406.5" y="298.0698">Agent</text></g><!--entity grafana--><g id="elem_grafana"><rect fill="#438DD5" height="52.9766" rx="2.5" ry="2.5" style="stroke:#3C7FC0;stroke-width:0.5;" width="85" x="517.5" y="115.4883"/><text fill="#FFFFFF" font-family="sans-serif" font-size="12" font-style="italic" lengthAdjust="spacing" textLength="65" x="527.5" y="137.0898">&#171;container&#187;</text><text fill="#FFFFFF" font-family="sans-serif" font-size="16" font-weight="bold" lengthAdjust="spacing" textLength="64" x="528" y="155.0898">Grafana</text></g><!--entity prometheus--><g id="elem_prometheus"><rect fill="#438DD5" height="52.9766" rx="2.5" ry="2.5" style="stroke:#3C7FC0;stroke-width:0.5;" width="118" x="501" y="258.4683"/><text fill="#FFFFFF" font-family="sans-serif" font-size="12" font-style="italic" lengthAdjust="spacing" textLength="65" x="527.5" y="280.0698">&#171;container&#187;</text><text fill="#FFFFFF" font-family="sans-serif" font-size="16" font-weight="bold" lengthAdjust="spacing" textLength="98" x="511" y="298.0698">Prometheus</text></g><!--entity datastore--><g id="elem_datastore"><path d="M9,608.9183 C9,598.9183 58,598.9183 58,598.9183 C58,598.9183 107,598.9183 107,608.9183 L107,650.8948 C107,660.8948 58,660.8948 58,660.8948 C58,660.8948 9,660.8948 9,650.8948 L9,608.9183 " fill="#1168BD" style="stroke:#3C7FC0;stroke-width:0.5;"/><path d="M9,608.9183 C9,618.9183 58,618.9183 58,618.9183 C58,618.9183 107,618.9183 107,608.9183 " fill="none" style="stroke:#3C7FC0;stroke-width:0.5;"/><text fill="#FFFFFF" font-family="sans-serif" font-size="12" font-style="italic" lengthAdjust="spacing" textLength="52" x="32" y="634.5198">&#171;system&#187;</text><text fill="#FFFFFF" font-family="sans-serif" font-size="16" font-weight="bold" lengthAdjust="spacing" textLength="78" x="19" y="652.5198">Datastore</text></g><!--entity sensor_network--><g id="elem_sensor_network"><rect fill="#1168BD" height="52.9766" rx="2.5" ry="2.5" style="stroke:#3C7FC0;stroke-width:0.5;" width="148" x="7" y="401.4483"/><text fill="#FFFFFF" font-family="sans-serif" font-size="12" font-style="italic" lengthAdjust="spacing" textLength="52" x="55" y="423.0498">&#171;system&#187;</text><text fill="#FFFFFF" font-family="sans-serif" font-size="16" font-weight="bold" lengthAdjust="spacing" textLength="55" x="17" y="441.0498">Sensor</text><text fill="#FFFFFF" font-family="sans-serif" font-size="16" font-weight="bold" lengthAdjust="spacing" textLength="5" x="72" y="441.0498">&#160;</text><text fill="#FFFFFF" font-family="sans-serif" font-size="16" font-weight="bold" lengthAdjust="spacing" textLength="68" x="77" y="441.0498">Network</text></g><!--entity zkevm--><g id="elem_zkevm"><rect fill="#1168BD" height="52.9766" rx="2.5" ry="2.5" style="stroke:#3C7FC0;stroke-width:0.5;" width="75" x="408.5" y="603.4183"/><text fill="#FFFFFF" font-family="sans-serif" font-size="12" font-style="italic" lengthAdjust="spacing" textLength="52" x="420" y="625.0198">&#171;system&#187;</text><text fill="#FFFFFF" font-family="sans-serif" font-size="16" font-weight="bold" lengthAdjust="spacing" textLength="55" x="418.5" y="643.0198">zkEVM</text></g><!--entity ethereum--><g id="elem_ethereum"><rect fill="#999999" height="52.9766" rx="2.5" ry="2.5" style="stroke:#8A8A8A;stroke-width:0.5;" width="125" x="518.5" y="603.4183"/><text fill="#FFFFFF" font-family="sans-serif" font-size="12" font-style="italic" lengthAdjust="spacing" textLength="105" x="528.5" y="625.0198">&#171;external_system&#187;</text><text fill="#FFFFFF" font-family="sans-serif" font-size="16" font-weight="bold" lengthAdjust="spacing" textLength="79" x="541.5" y="643.0198">Ethereum</text></g><!--entity slack--><g id="elem_slack"><rect fill="#999999" height="52.9766" rx="2.5" ry="2.5" style="stroke:#8A8A8A;stroke-width:0.5;" width="125" x="678.5" y="603.4183"/><text fill="#FFFFFF" font-family="sans-serif" font-size="12" font-style="italic" lengthAdjust="spacing" textLength="105" x="688.5" y="625.0198">&#171;external_system&#187;</text><text fill="#FFFFFF" font-family="sans-serif" font-size="16" font-weight="bold" lengthAdjust="spacing" textLength="42" x="720" y="643.0198">Slack</text></g><!--entity coralogix--><g id="elem_coralogix"><rect fill="#999999" height="52.9766" rx="2.5" ry="2.5" style="stroke:#8A8A8A;stroke-width:0.5;" width="125" x="810.5" y="401.4483"/><text fill="#FFFFFF" font-family="sans-serif" font-size="12" font-style="italic" lengthAdjust="spacing" textLength="105" x="820.5" y="423.0498">&#171;external_system&#187;</text><text fill="#FFFFFF" font-family="sans-serif" font-size="16" font-weight="bold" lengthAdjust="spacing" textLength="77" x="834.5" y="441.0498">Coralogix</text></g><!--entity datadog--><g id="elem_datadog"><rect fill="#999999" height="52.9766" rx="2.5" ry="2.5" style="stroke:#8A8A8A;stroke-width:0.5;" width="125" x="650.5" y="401.4483"/><text fill="#FFFFFF" font-family="sans-serif" font-size="12" font-style="italic" lengthAdjust="spacing" textLength="105" x="660.5" y="423.0498">&#171;external_system&#187;</text><text fill="#FFFFFF" font-family="sans-serif" font-size="16" font-weight="bold" lengthAdjust="spacing" textLength="69" x="678.5" y="441.0498">Datadog</text></g><!--link sensor_network to datastore--><g id="link_sensor_network_datastore"><path d="M55.46,454.8383 C48.03,464.0483 40.87,474.9983 37,486.4183 C24.36,523.7183 32.5885,561.5035 42.8185,590.8735 " fill="none" id="sensor_network-to-datastore" style="stroke:#666666;stroke-width:1.0;"/><polygon fill="#666666" points="45.45,598.4283,45.6516,589.8867,39.9855,591.8602,45.45,598.4283" style="stroke:#666666;stroke-width:1.0;"/><text fill="#666666" font-family="sans-serif" font-size="12" font-weight="bold" lengthAdjust="spacing" textLength="39" x="38" y="499.0198">Writes</text><text fill="#666666" font-family="sans-serif" font-size="12" font-style="italic" lengthAdjust="spacing" textLength="37" x="39" y="513.1527">[https]</text></g><!--link panoptichain to datastore--><g id="link_panoptichain_datastore"><path d="M330.39,446.4383 C297.83,456.3883 257.99,470.1183 224,486.4183 C201.65,497.1383 199.8,506.7083 177,516.4183 C163.12,522.3383 156.79,516.4083 144,524.4183 C114.54,542.8883 94.6996,568.1819 79.5696,591.9219 " fill="none" id="panoptichain-to-datastore" style="stroke:#666666;stroke-width:1.0;"/><polygon fill="#666666" points="75.27,598.6683,82.0995,593.5343,77.0397,590.3096,75.27,598.6683" style="stroke:#666666;stroke-width:1.0;"/><text fill="#666666" font-family="sans-serif" font-size="12" font-weight="bold" lengthAdjust="spacing" textLength="37" x="225" y="499.0198">Reads</text><text fill="#666666" font-family="sans-serif" font-size="12" font-style="italic" lengthAdjust="spacing" textLength="37" x="225" y="513.1527">[https]</text></g><!--link panoptichain to zkevm--><g id="link_panoptichain_zkevm"><path d="M400.69,454.6683 C410.65,492.9583 427.2468,556.7957 437.2368,595.2157 " fill="none" id="panoptichain-to-zkevm" style="stroke:#666666;stroke-width:1.0;"/><polygon fill="#666666" points="439.25,602.9583,440.1402,594.4608,434.3333,595.9707,439.25,602.9583" style="stroke:#666666;stroke-width:1.0;"/><text fill="#666666" font-family="sans-serif" font-size="12" font-weight="bold" lengthAdjust="spacing" textLength="30" x="416" y="499.0198">Uses</text><text fill="#666666" font-family="sans-serif" font-size="12" font-style="italic" lengthAdjust="spacing" textLength="27" x="417.5" y="513.1527">[rpc]</text></g><!--link panoptichain to ethereum--><g id="link_panoptichain_ethereum"><path d="M425.87,454.6383 C447.94,473.0783 477.47,499.0483 501,524.4183 C524.3,549.5483 543.1524,574.5654 558.5824,596.3954 " fill="none" id="panoptichain-to-ethereum" style="stroke:#666666;stroke-width:1.0;"/><polygon fill="#666666" points="563.2,602.9283,561.0322,594.6639,556.1326,598.127,563.2,602.9283" style="stroke:#666666;stroke-width:1.0;"/><text fill="#666666" font-family="sans-serif" font-size="12" font-weight="bold" lengthAdjust="spacing" textLength="30" x="493" y="499.0198">Uses</text><text fill="#666666" font-family="sans-serif" font-size="12" font-style="italic" lengthAdjust="spacing" textLength="27" x="494.5" y="513.1527">[rpc]</text></g><!--link panoptichain to bor--><g id="link_panoptichain_bor"><path d="M348.43,454.9083 C321.2,472.0783 287.3,496.5083 263,524.4183 C242.13,548.4083 228.3126,573.5174 217.7526,595.8274 " fill="none" id="panoptichain-to-bor" style="stroke:#666666;stroke-width:1.0;"/><polygon fill="#666666" points="214.33,603.0583,220.4642,597.1109,215.041,594.5439,214.33,603.0583" style="stroke:#666666;stroke-width:1.0;"/><text fill="#666666" font-family="sans-serif" font-size="12" font-weight="bold" lengthAdjust="spacing" textLength="30" x="302" y="499.0198">Uses</text><text fill="#666666" font-family="sans-serif" font-size="12" font-style="italic" lengthAdjust="spacing" textLength="27" x="303.5" y="513.1527">[rpc]</text></g><!--link panoptichain to heimdall--><g id="link_panoptichain_heimdall"><path d="M377.65,454.8283 C372.09,464.4683 366.22,475.6883 362,486.4183 C346.54,525.7783 337.8227,566.134 332.6127,595.174 " fill="none" id="panoptichain-to-heimdall" style="stroke:#666666;stroke-width:1.0;"/><polygon fill="#666666" points="331.2,603.0483,335.5656,595.7038,329.6599,594.6442,331.2,603.0483" style="stroke:#666666;stroke-width:1.0;"/><text fill="#666666" font-family="sans-serif" font-size="12" font-weight="bold" lengthAdjust="spacing" textLength="30" x="366.5" y="499.0198">Uses</text><text fill="#666666" font-family="sans-serif" font-size="12" font-style="italic" lengthAdjust="spacing" textLength="37" x="363" y="513.1527">[https]</text></g><!--link prometheus to panoptichain--><g id="link_prometheus_panoptichain"><path d="M529.55,311.8183 C499.69,337.1683 460.5182,370.4402 430.6282,395.8202 " fill="none" id="prometheus-to-panoptichain" style="stroke:#666666;stroke-width:1.0;"/><polygon fill="#666666" points="424.53,400.9983,432.5699,398.1071,428.6864,393.5334,424.53,400.9983" style="stroke:#666666;stroke-width:1.0;"/><text fill="#666666" font-family="sans-serif" font-size="12" font-weight="bold" lengthAdjust="spacing" textLength="47" x="492" y="354.0498">Scrapes</text><text fill="#666666" font-family="sans-serif" font-size="12" font-style="italic" lengthAdjust="spacing" textLength="37" x="497" y="368.1827">[https]</text></g><!--link grafana to prometheus--><g id="link_grafana_prometheus"><path d="M560,168.8383 C560,194.2783 560,224.8883 560,250.2683 " fill="none" id="grafana-to-prometheus" style="stroke:#666666;stroke-width:1.0;"/><polygon fill="#666666" points="560,258.2683,563,250.2683,557,250.2683,560,258.2683" style="stroke:#666666;stroke-width:1.0;"/><text fill="#666666" font-family="sans-serif" font-size="12" font-weight="bold" lengthAdjust="spacing" textLength="37" x="561" y="211.0698">Reads</text><text fill="#666666" font-family="sans-serif" font-size="12" font-style="italic" lengthAdjust="spacing" textLength="37" x="561" y="225.2027">[https]</text></g><!--link dd_agent to panoptichain--><g id="link_dd_agent_panoptichain"><path d="M394,311.8183 C394,337.2483 394,367.8583 394,393.2383 " fill="none" id="dd_agent-to-panoptichain" style="stroke:#666666;stroke-width:1.0;"/><polygon fill="#666666" points="394,401.2383,397,393.2383,391,393.2383,394,401.2383" style="stroke:#666666;stroke-width:1.0;"/><text fill="#666666" font-family="sans-serif" font-size="12" font-weight="bold" lengthAdjust="spacing" textLength="47" x="395" y="354.0498">Scrapes</text><text fill="#666666" font-family="sans-serif" font-size="12" font-style="italic" lengthAdjust="spacing" textLength="37" x="400" y="368.1827">[https]</text></g><!--link dd_agent to datadog--><g id="link_dd_agent_datadog"><path d="M465.69,309.5783 C491.89,318.7783 521.57,329.8983 548,341.4483 C589.24,359.4683 627.5136,379.3851 660.1936,397.2851 " fill="none" id="dd_agent-to-datadog" style="stroke:#666666;stroke-width:1.0;"/><polygon fill="#666666" points="667.21,401.1283,661.6348,394.654,658.7524,399.9163,667.21,401.1283" style="stroke:#666666;stroke-width:1.0;"/><text fill="#666666" font-family="sans-serif" font-size="12" font-weight="bold" lengthAdjust="spacing" textLength="39" x="608" y="354.0498">Writes</text><text fill="#666666" font-family="sans-serif" font-size="12" font-style="italic" lengthAdjust="spacing" textLength="37" x="609" y="368.1827">[https]</text></g><!--link prometheus to coralogix--><g id="link_prometheus_coralogix"><path d="M619.17,305.6383 C647.33,315.5283 681.28,328.2083 711,341.4483 C751.38,359.4283 788.6827,379.1824 820.7327,397.0524 " fill="none" id="prometheus-to-coralogix" style="stroke:#666666;stroke-width:1.0;"/><polygon fill="#666666" points="827.72,400.9483,822.1937,394.4322,819.2718,399.6726,827.72,400.9483" style="stroke:#666666;stroke-width:1.0;"/><text fill="#666666" font-family="sans-serif" font-size="12" font-weight="bold" lengthAdjust="spacing" textLength="39" x="770" y="354.0498">Writes</text><text fill="#666666" font-family="sans-serif" font-size="12" font-style="italic" lengthAdjust="spacing" textLength="37" x="771" y="368.1827">[https]</text></g><!--link datadog to slack--><g id="link_datadog_slack"><path d="M716.6,454.6683 C721.96,492.9583 730.8806,556.6156 736.2606,595.0356 " fill="none" id="datadog-to-slack" style="stroke:#666666;stroke-width:1.0;"/><polygon fill="#666666" points="737.37,602.9583,739.2316,594.6195,733.2896,595.4516,737.37,602.9583" style="stroke:#666666;stroke-width:1.0;"/><text fill="#666666" font-family="sans-serif" font-size="12" font-weight="bold" lengthAdjust="spacing" textLength="37" x="725" y="499.0198">Alerts</text><text fill="#666666" font-family="sans-serif" font-size="12" font-style="italic" lengthAdjust="spacing" textLength="37" x="725" y="513.1527">[https]</text></g><!--link sensor_network to bor--><g id="link_sensor_network_bor"><path d="M89.94,454.6083 C96.62,472.4783 106.54,496.5683 118,516.4183 C118.34,517.0083 153.5632,563.5785 178.5532,596.6085 " fill="none" id="sensor_network-to-bor" style="stroke:#666666;stroke-width:1.0;"/><polygon fill="#666666" points="183.38,602.9883,180.9456,594.7984,176.1607,598.4186,183.38,602.9883" style="stroke:#666666;stroke-width:1.0;"/><text fill="#666666" font-family="sans-serif" font-size="12" font-weight="bold" lengthAdjust="spacing" textLength="33" x="129" y="499.0198">Peers</text><text fill="#666666" font-family="sans-serif" font-size="12" font-style="italic" lengthAdjust="spacing" textLength="53" x="119" y="513.1527">[devp2p]</text></g><!--SRC=[ZP9DRzim38Rl_XLQJYwmrkYmqsv96cp0rY5eqEqOo19d6v4bWPBJZs7_VLGSnxAT8ZsP9XzHrCltGwM5QYImqdlhlcGPygURel9bapSEK1ZjGViROUhCAgvzKwjhvwMgycpv-NeTKe_tFxAQEmz8gUtIrDReSCOIcoI-yWhOccjZVILANcasHr5M7eHl499ayq97wxiybTnJ5uFmaStkkdXsTGHI1zePt6hmJmPtn6mE2VQpJVJWwmxsDTLVTwjVzwVqTlNiK_0b83IXkZg6FR0mZPOSNr9htFwMaBNPx6zdL-nlmjYIXA3P0TFS8DKM1kbad2-XgYLNYehVZY4H_v99-s8NNlZLc8A4-TxaWFGcS6ob2seqkSz6qeMXej_H159kUK7A7_MJfc3py3_22kH_kEPXXZOQrIsQEWZLk73TwMVmc22cKrmSzX2-Gvs5GQvCKJrJUTd5GqIs4_QpKZbv03NPSsoBtqY-SJEA3dQb8-74KA6OVm0kB-2TMnvTsnYjECj5rhc4jWwvH4L-wT31bD4MHXRO2EHsUkAqry42pqhGE-LzhNk-NziRkuZkZbrmdZvrwxmqLu1-WeqjqGgy1i03Ac5lFrbY_mC0]--></g></svg>