<?xml version="1.0" encoding="us-ascii" standalone="no"?><svg xmlns="http://www.w3.org/2000/svg" xmlns:xlink="http://www.w3.org/1999/xlink" contentStyleType="text/css" height="678px" preserveAspectRatio="none" style="width:1005px;height:678px;background:#FFFFFF;" version="1.1" viewBox="0 0 1005 678" width="1005px" zoomAndPan="magnify"><defs/><g><text fill="#000000" font-family="sans-serif" font-size="14" font-weight="bold" lengthAdjust="spacing" textLength="185" x="403.25" y="23.5352">Panoptichain Architecture</text><!--cluster posv1--><g id="cluster_posv1"><rect fill="none" height="139.98" rx="2.5" ry="2.5" style="stroke:#444444;stroke-width:1.0;stroke-dasharray:7.0,7.0;" width="245" x="183" y="532.4183"/><text fill="#444444" font-family="sans-serif" font-size="16" font-weight="bold" lengthAdjust="spacing" textLength="49" x="281" y="569.887">PoSv1</text><text fill="#444444" font-family="sans-serif" font-size="12" font-weight="bold" lengthAdjust="spacing" textLength="53" x="279" y="584.8636">[System]</text></g><!--cluster gke--><g id="cluster_gke"><rect fill="none" height="425.93" rx="2.5" ry="2.5" style="stroke:#444444;stroke-width:1.0;stroke-dasharray:7.0,7.0;" width="383" x="316" y="44.4883"/><text fill="#444444" font-family="sans-serif" font-size="16" font-weight="bold" lengthAdjust="spacing" textLength="217" x="399" y="81.957">Google Kubernetes Engine</text><text fill="#444444" font-family="sans-serif" font-size="12" font-weight="bold" lengthAdjust="spacing" textLength="53" x="481" y="96.9336">[System]</text></g><!--entity bor--><g id="elem_bor"><rect fill="#438DD5" height="52.9766" rx="2.5" ry="2.5" style="stroke:#3C7FC0;stroke-width:0.5;" width="85" x="199.5" y="603.4183"/><text fill="#FFFFFF" font-family="sans-serif" font-size="12" font-style="italic" lengthAdjust="spacing" textLength="65" x="209.5" y="625.0198">&#171;container&#187;</text><text fill="#FFFFFF" font-family="sans-serif" font-size="16" font-weight="bold" lengthAdjust="spacing" textLength="27" x="228.5" y="643.0198">Bor</text></g><!--entity heimdall--><g id="elem_heimdall"><rect fill="#438DD5" height="52.9766" rx="2.5" ry="2.5" style="stroke:#3C7FC0;stroke-width:0.5;" width="92" x="320" y="603.4183"/><text fill="#FFFFFF" font-family="sans-serif" font-size="12" font-style="italic" lengthAdjust="spacing" textLength="65" x="333.5" y="625.0198">&#171;container&#187;</text><text fill="#FFFFFF" font-family="sans-serif" font-size="16" font-weight="bold" lengthAdjust="spacing" textLength="72" x="330" y="643.0198">Heimdall</text></g><!--entity panoptichain--><g id="elem_panoptichain"><rect fill="#438DD5" height="52.9766" rx="2.5" ry="2.5" style="stroke:#3C7FC0;stroke-width:0.5;" width="127" x="332.5" y="401.4483"/><text fill="#FFFFFF" font-family="sans-serif" font-size="12" font-style="italic" lengthAdjust="spacing" textLength="65" x="363.5" y="423.0498">&#171;container&#187;</text><text fill="#FFFFFF" font-family="sans-serif" font-size="16" font-weight="bold" lengthAdjust="spacing" textLength="107" x="342.5" y="441.0498">Panoptichain</text></g><!--entity panoptichain_cdk--><g id="elem_panoptichain_cdk"><rect fill="#438DD5" height="52.9766" rx="2.5" ry="2.5" style="stroke:#3C7FC0;stroke-width:0.5;" width="172" x="506" y="401.4483"/><text fill="#FFFFFF" font-family="sans-serif" font-size="12" font-style="italic" lengthAdjust="spacing" textLength="65" x="559.5" y="423.0498">&#171;container&#187;</text><text fill="#FFFFFF" font-family="sans-serif" font-size="16" font-weight="bold" lengthAdjust="spacing" textLength="152" x="516" y="441.0498">Panoptichain-CDK</text></g><!--entity dd_agent--><g id="elem_dd_agent"><rect fill="#438DD5" height="52.9766" rx="2.5" ry="2.5" style="stroke:#3C7FC0;stroke-width:0.5;" width="143" x="384.5" y="258.4683"/><text fill="#FFFFFF" font-family="sans-serif" font-size="12" font-style="italic" lengthAdjust="spacing" textLength="65" x="423.5" y="280.0698">&#171;container&#187;</text><text fill="#FFFFFF" font-family="sans-serif" font-size="16" font-weight="bold" lengthAdjust="spacing" textLength="69" x="394.5" y="298.0698">Datadog</text><text fill="#FFFFFF" font-family="sans-serif" font-size="16" font-weight="bold" lengthAdjust="spacing" textLength="5" x="463.5" y="298.0698">&#160;</text><text fill="#FFFFFF" font-family="sans-serif" font-size="16" font-weight="bold" lengthAdjust="spacing" textLength="49" x="468.5" y="298.0698">Agent</text></g><!--entity grafana--><g id="elem_grafana"><rect fill="#438DD5" height="52.9766" rx="2.5" ry="2.5" style="stroke:#3C7FC0;stroke-width:0.5;" width="85" x="581.5" y="115.4883"/><text fill="#FFFFFF" font-family="sans-serif" font-size="12" font-style="italic" lengthAdjust="spacing" textLength="65" x="591.5" y="137.0898">&#171;container&#187;</text><text fill="#FFFFFF" font-family="sans-serif" font-size="16" font-weight="bold" lengthAdjust="spacing" textLength="64" x="592" y="155.0898">Grafana</text></g><!--entity prometheus--><g id="elem_prometheus"><rect fill="#438DD5" height="52.9766" rx="2.5" ry="2.5" style="stroke:#3C7FC0;stroke-width:0.5;" width="118" x="565" y="258.4683"/><text fill="#FFFFFF" font-family="sans-serif" font-size="12" font-style="italic" lengthAdjust="spacing" textLength="65" x="591.5" y="280.0698">&#171;container&#187;</text><text fill="#FFFFFF" font-family="sans-serif" font-size="16" font-weight="bold" lengthAdjust="spacing" textLength="98" x="575" y="298.0698">Prometheus</text></g><!--entity datastore--><g id="elem_datastore"><path d="M30,608.9183 C30,598.9183 79,598.9183 79,598.9183 C79,598.9183 128,598.9183 128,608.9183 L128,650.8948 C128,660.8948 79,660.8948 79,660.8948 C79,660.8948 30,660.8948 30,650.8948 L30,608.9183 " fill="#1168BD" style="stroke:#3C7FC0;stroke-width:0.5;"/><path d="M30,608.9183 C30,618.9183 79,618.9183 79,618.9183 C79,618.9183 128,618.9183 128,608.9183 " fill="none" style="stroke:#3C7FC0;stroke-width:0.5;"/><text fill="#FFFFFF" font-family="sans-serif" font-size="12" font-style="italic" lengthAdjust="spacing" textLength="52" x="53" y="634.5198">&#171;system&#187;</text><text fill="#FFFFFF" font-family="sans-serif" font-size="16" font-weight="bold" lengthAdjust="spacing" textLength="78" x="40" y="652.5198">Datastore</text></g><!--entity sensor_network--><g id="elem_sensor_network"><rect fill="#1168BD" height="52.9766" rx="2.5" ry="2.5" style="stroke:#3C7FC0;stroke-width:0.5;" width="148" x="7" y="401.4483"/><text fill="#FFFFFF" font-family="sans-serif" font-size="12" font-style="italic" lengthAdjust="spacing" textLength="52" x="55" y="423.0498">&#171;system&#187;</text><text fill="#FFFFFF" font-family="sans-serif" font-size="16" font-weight="bold" lengthAdjust="spacing" textLength="55" x="17" y="441.0498">Sensor</text><text fill="#FFFFFF" font-family="sans-serif" font-size="16" font-weight="bold" lengthAdjust="spacing" textLength="5" x="72" y="441.0498">&#160;</text><text fill="#FFFFFF" font-family="sans-serif" font-size="16" font-weight="bold" lengthAdjust="spacing" textLength="68" x="77" y="441.0498">Network</text></g><!--entity zkevm--><g id="elem_zkevm"><rect fill="#1168BD" height="52.9766" rx="2.5" ry="2.5" style="stroke:#3C7FC0;stroke-width:0.5;" width="75" x="447.5" y="603.4183"/><text fill="#FFFFFF" font-family="sans-serif" font-size="12" font-style="italic" lengthAdjust="spacing" textLength="52" x="459" y="625.0198">&#171;system&#187;</text><text fill="#FFFFFF" font-family="sans-serif" font-size="16" font-weight="bold" lengthAdjust="spacing" textLength="55" x="457.5" y="643.0198">zkEVM</text></g><!--entity ethereum--><g id="elem_ethereum"><rect fill="#999999" height="52.9766" rx="2.5" ry="2.5" style="stroke:#8A8A8A;stroke-width:0.5;" width="125" x="557.5" y="603.4183"/><text fill="#FFFFFF" font-family="sans-serif" font-size="12" font-style="italic" lengthAdjust="spacing" textLength="105" x="567.5" y="625.0198">&#171;external_system&#187;</text><text fill="#FFFFFF" font-family="sans-serif" font-size="16" font-weight="bold" lengthAdjust="spacing" textLength="79" x="580.5" y="643.0198">Ethereum</text></g><!--entity slack--><g id="elem_slack"><rect fill="#999999" height="52.9766" rx="2.5" ry="2.5" style="stroke:#8A8A8A;stroke-width:0.5;" width="125" x="717.5" y="603.4183"/><text fill="#FFFFFF" font-family="sans-serif" font-size="12" font-style="italic" lengthAdjust="spacing" textLength="105" x="727.5" y="625.0198">&#171;external_system&#187;</text><text fill="#FFFFFF" font-family="sans-serif" font-size="16" font-weight="bold" lengthAdjust="spacing" textLength="42" x="759" y="643.0198">Slack</text></g><!--entity coralogix--><g id="elem_coralogix"><rect fill="#999999" height="52.9766" rx="2.5" ry="2.5" style="stroke:#8A8A8A;stroke-width:0.5;" width="125" x="874.5" y="401.4483"/><text fill="#FFFFFF" font-family="sans-serif" font-size="12" font-style="italic" lengthAdjust="spacing" textLength="105" x="884.5" y="423.0498">&#171;external_system&#187;</text><text fill="#FFFFFF" font-family="sans-serif" font-size="16" font-weight="bold" lengthAdjust="spacing" textLength="77" x="898.5" y="441.0498">Coralogix</text></g><!--entity datadog--><g id="elem_datadog"><rect fill="#999999" height="52.9766" rx="2.5" ry="2.5" style="stroke:#8A8A8A;stroke-width:0.5;" width="125" x="714.5" y="401.4483"/><text fill="#FFFFFF" font-family="sans-serif" font-size="12" font-style="italic" lengthAdjust="spacing" textLength="105" x="724.5" y="423.0498">&#171;external_system&#187;</text><text fill="#FFFFFF" font-family="sans-serif" font-size="16" font-weight="bold" lengthAdjust="spacing" textLength="69" x="742.5" y="441.0498">Datadog</text></g><!--link sensor_network to datastore--><g id="link_sensor_network_datastore"><path d="M55.46,454.8383 C48.03,464.0483 40.87,474.9983 37,486.4183 C24.01,524.7683 38.8037,562.7194 55.2437,591.7094 " fill="none" id="sensor_network-to-datastore" style="stroke:#666666;stroke-width:1.0;"/><polygon fill="#666666" points="59.19,598.6683,57.8532,590.2295,52.6341,593.1893,59.19,598.6683" style="stroke:#666666;stroke-width:1.0;"/><text fill="#666666" font-family="sans-serif" font-size="12" font-weight="bold" lengthAdjust="spacing" textLength="39" x="38" y="499.0198">Writes</text><text fill="#666666" font-family="sans-serif" font-size="12" font-style="italic" lengthAdjust="spacing" textLength="37" x="39" y="513.1527">[https]</text></g><!--link panoptichain to datastore--><g id="link_panoptichain_datastore"><path d="M332.21,448.7783 C287.58,464.6683 228.1,490.0083 183,524.4183 C153.9,546.6283 130.2156,570.6854 110.2456,592.8454 " fill="none" id="panoptichain-to-datastore" style="stroke:#666666;stroke-width:1.0;"/><polygon fill="#666666" points="104.89,598.7883,112.4742,594.8537,108.017,590.8371,104.89,598.7883" style="stroke:#666666;stroke-width:1.0;"/><text fill="#666666" font-family="sans-serif" font-size="12" font-weight="bold" lengthAdjust="spacing" textLength="37" x="244" y="499.0198">Reads</text><text fill="#666666" font-family="sans-serif" font-size="12" font-style="italic" lengthAdjust="spacing" textLength="37" x="244" y="513.1527">[https]</text></g><!--link panoptichain to zkevm--><g id="link_panoptichain_zkevm"><path d="M407.45,454.6683 C424.5,492.9583 453.097,557.2295 470.197,595.6495 " fill="none" id="panoptichain-to-zkevm" style="stroke:#666666;stroke-width:1.0;"/><polygon fill="#666666" points="473.45,602.9583,472.9378,594.4296,467.4562,596.8694,473.45,602.9583" style="stroke:#666666;stroke-width:1.0;"/><text fill="#666666" font-family="sans-serif" font-size="12" font-weight="bold" lengthAdjust="spacing" textLength="30" x="433" y="499.0198">Uses</text><text fill="#666666" font-family="sans-serif" font-size="12" font-style="italic" lengthAdjust="spacing" textLength="27" x="434.5" y="513.1527">[rpc]</text></g><!--link panoptichain to ethereum--><g id="link_panoptichain_ethereum"><path d="M430.47,454.9183 C443.5,464.7583 458.45,476.0883 472,486.4183 C489.39,499.6883 491.43,506.6683 511,516.4183 C522.97,522.3883 528.91,516.9483 540,524.4183 C569.74,544.4783 589.13,572.2771 602.74,596.1671 " fill="none" id="panoptichain-to-ethereum" style="stroke:#666666;stroke-width:1.0;"/><polygon fill="#666666" points="606.7,603.1183,605.3467,594.6821,600.1333,597.6522,606.7,603.1183" style="stroke:#666666;stroke-width:1.0;"/><text fill="#666666" font-family="sans-serif" font-size="12" font-weight="bold" lengthAdjust="spacing" textLength="30" x="512" y="499.0198">Uses</text><text fill="#666666" font-family="sans-serif" font-size="12" font-style="italic" lengthAdjust="spacing" textLength="27" x="513.5" y="513.1527">[rpc]</text></g><!--link panoptichain to bor--><g id="link_panoptichain_bor"><path d="M354.44,454.8983 C342.08,463.8783 329.14,474.6783 319,486.4183 C287.94,522.3783 267.3786,565.5619 254.9186,595.7919 " fill="none" id="panoptichain-to-bor" style="stroke:#666666;stroke-width:1.0;"/><polygon fill="#666666" points="251.87,603.1883,257.6922,596.9351,252.1449,594.6487,251.87,603.1883" style="stroke:#666666;stroke-width:1.0;"/><text fill="#666666" font-family="sans-serif" font-size="12" font-weight="bold" lengthAdjust="spacing" textLength="30" x="320" y="499.0198">Uses</text><text fill="#666666" font-family="sans-serif" font-size="12" font-style="italic" lengthAdjust="spacing" textLength="27" x="321.5" y="513.1527">[rpc]</text></g><!--link panoptichain to heimdall--><g id="link_panoptichain_heimdall"><path d="M378.03,454.6383 C372.38,464.1783 366.87,475.3683 364,486.4183 C353.71,526.0483 356.462,566.074 360.472,595.014 " fill="none" id="panoptichain-to-heimdall" style="stroke:#666666;stroke-width:1.0;"/><polygon fill="#666666" points="361.57,602.9383,363.4436,594.6022,357.5004,595.4257,361.57,602.9383" style="stroke:#666666;stroke-width:1.0;"/><text fill="#666666" font-family="sans-serif" font-size="12" font-weight="bold" lengthAdjust="spacing" textLength="30" x="368.5" y="499.0198">Uses</text><text fill="#666666" font-family="sans-serif" font-size="12" font-style="italic" lengthAdjust="spacing" textLength="37" x="365" y="513.1527">[https]</text></g><!--link prometheus to panoptichain--><g id="link_prometheus_panoptichain"><path d="M588.49,311.8983 C555.33,336.0783 510.32,368.8083 506,371.4483 C488.83,381.9083 476.6027,388.6052 458.9327,397.3952 " fill="none" id="prometheus-to-panoptichain" style="stroke:#666666;stroke-width:1.0;"/><polygon fill="#666666" points="451.77,400.9583,460.2689,400.0812,457.5965,394.7092,451.77,400.9583" style="stroke:#666666;stroke-width:1.0;"/><text fill="#666666" font-family="sans-serif" font-size="12" font-weight="bold" lengthAdjust="spacing" textLength="47" x="548" y="354.0498">Scrapes</text><text fill="#666666" font-family="sans-serif" font-size="12" font-style="italic" lengthAdjust="spacing" textLength="37" x="553" y="368.1827">[https]</text></g><!--link grafana to prometheus--><g id="link_grafana_prometheus"><path d="M624,168.8383 C624,194.2783 624,224.8883 624,250.2683 " fill="none" id="grafana-to-prometheus" style="stroke:#666666;stroke-width:1.0;"/><polygon fill="#666666" points="624,258.2683,627,250.2683,621,250.2683,624,258.2683" style="stroke:#666666;stroke-width:1.0;"/><text fill="#666666" font-family="sans-serif" font-size="12" font-weight="bold" lengthAdjust="spacing" textLength="37" x="625" y="211.0698">Reads</text><text fill="#666666" font-family="sans-serif" font-size="12" font-style="italic" lengthAdjust="spacing" textLength="37" x="625" y="225.2027">[https]</text></g><!--link dd_agent to panoptichain--><g id="link_dd_agent_panoptichain"><path d="M393.38,311.6783 C381.62,319.4583 370.88,329.2683 364,341.4483 C353.25,360.4883 358.9603,377.1766 370.5903,394.6666 " fill="none" id="dd_agent-to-panoptichain" style="stroke:#666666;stroke-width:1.0;"/><polygon fill="#666666" points="375.02,401.3283,373.0884,393.0055,368.0922,396.3277,375.02,401.3283" style="stroke:#666666;stroke-width:1.0;"/><text fill="#666666" font-family="sans-serif" font-size="12" font-weight="bold" lengthAdjust="spacing" textLength="47" x="365" y="354.0498">Scrapes</text><text fill="#666666" font-family="sans-serif" font-size="12" font-style="italic" lengthAdjust="spacing" textLength="37" x="370" y="368.1827">[https]</text></g><!--link dd_agent to datadog--><g id="link_dd_agent_datadog"><path d="M527.98,306.3183 C534.4,308.0783 540.81,309.8083 547,311.4483 C600.14,325.5283 617.57,317.3983 667,341.4483 C698.54,356.7883 723.7209,376.7965 744.7609,395.9265 " fill="none" id="dd_agent-to-datadog" style="stroke:#666666;stroke-width:1.0;"/><polygon fill="#666666" points="750.68,401.3083,746.779,393.7068,742.7427,398.1462,750.68,401.3083" style="stroke:#666666;stroke-width:1.0;"/><text fill="#666666" font-family="sans-serif" font-size="12" font-weight="bold" lengthAdjust="spacing" textLength="39" x="713" y="354.0498">Writes</text><text fill="#666666" font-family="sans-serif" font-size="12" font-style="italic" lengthAdjust="spacing" textLength="37" x="714" y="368.1827">[https]</text></g><!--link prometheus to coralogix--><g id="link_prometheus_coralogix"><path d="M683.29,300.8083 C717.84,310.4283 761.79,324.3383 799,341.4483 C835.36,358.1583 867.2436,378.1266 894.3036,396.6066 " fill="none" id="prometheus-to-coralogix" style="stroke:#666666;stroke-width:1.0;"/><polygon fill="#666666" points="900.91,401.1183,895.9955,394.1292,892.6117,399.084,900.91,401.1183" style="stroke:#666666;stroke-width:1.0;"/><text fill="#666666" font-family="sans-serif" font-size="12" font-weight="bold" lengthAdjust="spacing" textLength="39" x="854" y="354.0498">Writes</text><text fill="#666666" font-family="sans-serif" font-size="12" font-style="italic" lengthAdjust="spacing" textLength="37" x="855" y="368.1827">[https]</text></g><!--link datadog to slack--><g id="link_datadog_slack"><path d="M777.39,454.6683 C777.96,492.9583 778.9092,556.5392 779.4892,594.9592 " fill="none" id="datadog-to-slack" style="stroke:#666666;stroke-width:1.0;"/><polygon fill="#666666" points="779.61,602.9583,782.4889,594.9139,776.4896,595.0045,779.61,602.9583" style="stroke:#666666;stroke-width:1.0;"/><text fill="#666666" font-family="sans-serif" font-size="12" font-weight="bold" lengthAdjust="spacing" textLength="37" x="779" y="499.0198">Alerts</text><text fill="#666666" font-family="sans-serif" font-size="12" font-style="italic" lengthAdjust="spacing" textLength="37" x="779" y="513.1527">[https]</text></g><!--link sensor_network to bor--><g id="link_sensor_network_bor"><path d="M85.68,454.6283 C90.54,474.1783 100.05,500.3783 118,516.4183 C127.33,524.7583 134.36,517.8283 145,524.4183 C178.02,544.9083 202.2731,573.1288 219.7731,596.8688 " fill="none" id="sensor_network-to-bor" style="stroke:#666666;stroke-width:1.0;"/><polygon fill="#666666" points="224.52,603.3083,222.1879,595.0887,217.3583,598.6489,224.52,603.3083" style="stroke:#666666;stroke-width:1.0;"/><text fill="#666666" font-family="sans-serif" font-size="12" font-weight="bold" lengthAdjust="spacing" textLength="33" x="129" y="499.0198">Peers</text><text fill="#666666" font-family="sans-serif" font-size="12" font-style="italic" lengthAdjust="spacing" textLength="53" x="119" y="513.1527">[devp2p]</text></g><!--link prometheus to panoptichain_cdk--><g id="link_prometheus_panoptichain_cdk"><path d="M618.13,311.8183 C612.36,337.2483 605.3606,368.0567 599.6006,393.4367 " fill="none" id="prometheus-to-panoptichain_cdk" style="stroke:#666666;stroke-width:1.0;"/><polygon fill="#666666" points="597.83,401.2383,602.5262,394.1006,596.675,392.7727,597.83,401.2383" style="stroke:#666666;stroke-width:1.0;"/><text fill="#666666" font-family="sans-serif" font-size="12" font-weight="bold" lengthAdjust="spacing" textLength="47" x="611" y="354.0498">Scrapes</text><text fill="#666666" font-family="sans-serif" font-size="12" font-style="italic" lengthAdjust="spacing" textLength="37" x="616" y="368.1827">[https]</text></g><!--link dd_agent to panoptichain_cdk--><g id="link_dd_agent_panoptichain_cdk"><path d="M447.62,311.7183 C443.36,329.9383 441.25,354.1083 453,371.4483 C465.46,389.8383 477.6677,399.1783 498.3077,407.3983 " fill="none" id="dd_agent-to-panoptichain_cdk" style="stroke:#666666;stroke-width:1.0;"/><polygon fill="#666666" points="505.74,410.3583,499.4177,404.6112,497.1977,410.1854,505.74,410.3583" style="stroke:#666666;stroke-width:1.0;"/><text fill="#666666" font-family="sans-serif" font-size="12" font-weight="bold" lengthAdjust="spacing" textLength="47" x="454" y="354.0498">Scrapes</text><text fill="#666666" font-family="sans-serif" font-size="12" font-style="italic" lengthAdjust="spacing" textLength="37" x="459" y="368.1827">[https]</text></g><!--link panoptichain_cdk to zkevm--><g id="link_panoptichain_cdk_zkevm"><path d="M583.87,454.5983 C577.12,473.1483 566.16,498.0483 551,516.4183 C547.15,521.0883 543.96,519.8483 540,524.4183 C519.48,548.1383 506.8882,573.4317 497.6282,595.9017 " fill="none" id="panoptichain_cdk-to-zkevm" style="stroke:#666666;stroke-width:1.0;"/><polygon fill="#666666" points="494.58,603.2983,500.4019,597.0448,494.8544,594.7587,494.58,603.2983" style="stroke:#666666;stroke-width:1.0;"/><text fill="#666666" font-family="sans-serif" font-size="12" font-weight="bold" lengthAdjust="spacing" textLength="30" x="570" y="499.0198">Uses</text><text fill="#666666" font-family="sans-serif" font-size="12" font-style="italic" lengthAdjust="spacing" textLength="27" x="571.5" y="513.1527">[rpc]</text></g><!--link panoptichain_cdk to ethereum--><g id="link_panoptichain_cdk_ethereum"><path d="M609.41,454.7083 C614.89,464.2483 620.22,475.4283 623,486.4183 C633.02,526.1283 629.9824,566.1317 625.7724,595.0517 " fill="none" id="panoptichain_cdk-to-ethereum" style="stroke:#666666;stroke-width:1.0;"/><polygon fill="#666666" points="624.62,602.9683,628.7412,595.4839,622.8037,594.6196,624.62,602.9683" style="stroke:#666666;stroke-width:1.0;"/><text fill="#666666" font-family="sans-serif" font-size="12" font-weight="bold" lengthAdjust="spacing" textLength="30" x="628" y="499.0198">Uses</text><text fill="#666666" font-family="sans-serif" font-size="12" font-style="italic" lengthAdjust="spacing" textLength="27" x="629.5" y="513.1527">[rpc]</text></g><!--SRC=[ZPDDRzim38Rl_XLUJYwmDEYmqsvf4cn0ro5eqEreA19h6v4bWPBJZs7_VLHinxAT83cP8XzI5FdwKw6uh0J4kNF6VflDaBtUPeNBgsrb0RbM3fIxvRgS6ScKgqevjKx8OZjRV9sklUlvyUUiPDO1aYjTwD9evNCCiL7a2YSXNZEbZIjupWeLpv7dXGFkAeGeshnJQhdS9e8vgg8HFiUJPMjFRXeWiQ2inbI1UzMu8sPpSCI_QaS7VknWNrByOxVw_NXqfwitbu3B0Q7oqLLZTi2zhfHW-9uORVTtXAprPdytkOd_Hd6ye45Gxu39LYF5xZLIPkZFeIW5avA2FngJY7_Hg7osyo_yhdL6Wtceje3q9h3nIcLKQ7IV2KRdcmgEWmv2CkLYDw2dY-N384E8b6MqgsRYGcVnt9y7M8RiXIdckwwjuSMeIp_QolehZuVUy_tuhMJyi3d_xM-6QsHIPyKRXHUjtKT4tM7NAuMZ9v0ZPOH2-eEaD3iXwo1mIl4P_Pc6_1CmSG5lzVLiwy9e-4ak4DibjDRK9IfGM8lskWosC13DXYCpuupZNdiBF3c2JYdNbUxuRcrdTX7S7QhWD7sircffBW7T21jAeXxm6W0Fg82z-M9Q_PmRNFCFNNpXzJbZyZenrUnPGVq7]--></g></svg>