<?xml version="1.0" encoding="us-ascii" standalone="no"?><svg xmlns="http://www.w3.org/2000/svg" xmlns:xlink="http://www.w3.org/1999/xlink" contentStyleType="text/css" height="881px" preserveAspectRatio="none" style="width:764px;height:881px;background:#FFFFFF;" version="1.1" viewBox="0 0 764 881" width="764px" zoomAndPan="magnify"><defs/><g><text fill="#000000" font-family="sans-serif" font-size="14" font-weight="bold" lengthAdjust="spacing" textLength="105" x="322.5" y="23.5352">Class Diagram</text><!--cluster provider--><g id="cluster_provider"><path d="M334.5,43.4883 L395.5,43.4883 A3.75,3.75 0 0 1 398,45.9883 L405,65.9766 L643.5,65.9766 A2.5,2.5 0 0 1 646,68.4766 L646,377.9883 A2.5,2.5 0 0 1 643.5,380.4883 L334.5,380.4883 A2.5,2.5 0 0 1 332,377.9883 L332,45.9883 A2.5,2.5 0 0 1 334.5,43.4883 " fill="none" style="stroke:#000000;stroke-width:1.5;"/><line style="stroke:#000000;stroke-width:1.5;" x1="332" x2="405" y1="65.9766" y2="65.9766"/><text fill="#000000" font-family="sans-serif" font-size="14" font-weight="bold" lengthAdjust="spacing" textLength="60" x="336" y="59.0234">provider</text></g><!--cluster observer--><g id="cluster_observer"><path d="M8.5,404.4883 L71.5,404.4883 A3.75,3.75 0 0 1 74,406.9883 L81,426.9766 L754.5,426.9766 A2.5,2.5 0 0 1 757,429.4766 L757,872.4283 A2.5,2.5 0 0 1 754.5,874.9283 L8.5,874.9283 A2.5,2.5 0 0 1 6,872.4283 L6,406.9883 A2.5,2.5 0 0 1 8.5,404.4883 " fill="none" style="stroke:#000000;stroke-width:1.5;"/><line style="stroke:#000000;stroke-width:1.5;" x1="6" x2="81" y1="426.9766" y2="426.9766"/><text fill="#000000" font-family="sans-serif" font-size="14" font-weight="bold" lengthAdjust="spacing" textLength="62" x="10" y="420.0234">observer</text></g><!--cluster topics--><g id="cluster_topics"><path d="M555.5,601.9783 L600.5,601.9783 A3.75,3.75 0 0 1 603,604.4783 L610,624.4666 L730.5,624.4666 A2.5,2.5 0 0 1 733,626.9666 L733,731.4483 A2.5,2.5 0 0 1 730.5,733.9483 L555.5,733.9483 A2.5,2.5 0 0 1 553,731.4483 L553,604.4783 A2.5,2.5 0 0 1 555.5,601.9783 " fill="none" style="stroke:#000000;stroke-width:1.5;"/><line style="stroke:#000000;stroke-width:1.5;" x1="553" x2="610" y1="624.4666" y2="624.4666"/><text fill="#000000" font-family="sans-serif" font-size="14" font-weight="bold" lengthAdjust="spacing" textLength="44" x="557" y="617.5134">topics</text></g><!--class Provider--><g id="elem_Provider"><rect codeLine="5" fill="#F1F1F1" height="113.9531" id="Provider" rx="2.5" ry="2.5" style="stroke:#181818;stroke-width:0.5;" width="266" x="356" y="82.4883"/><ellipse cx="456.25" cy="98.4883" fill="#B4A7E5" rx="11" ry="11" style="stroke:#181818;stroke-width:1.0;"/><path d="M452.6777,94.7534 L452.6777,92.5952 L460.0571,92.5952 L460.0571,94.7534 L457.5918,94.7534 L457.5918,102.8301 L460.0571,102.8301 L460.0571,104.9883 L452.6777,104.9883 L452.6777,102.8301 L455.1431,102.8301 L455.1431,94.7534 Z " fill="#000000"/><text fill="#000000" font-family="sans-serif" font-size="14" font-style="italic" lengthAdjust="spacing" textLength="57" x="476.75" y="103.7793">Provider</text><line style="stroke:#181818;stroke-width:0.5;" x1="357" x2="621" y1="114.4883" y2="114.4883"/><line style="stroke:#181818;stroke-width:0.5;" x1="357" x2="621" y1="122.4883" y2="122.4883"/><text fill="#000000" font-family="sans-serif" font-size="14" font-style="italic" lengthAdjust="spacing" textLength="246" x="362" y="140.0234">RefreshState(context.Context) error</text><text fill="#000000" font-family="sans-serif" font-size="14" font-style="italic" lengthAdjust="spacing" textLength="254" x="362" y="156.5117">PublishEvents(context.Context) error</text><text fill="#000000" font-family="sans-serif" font-size="14" font-style="italic" lengthAdjust="spacing" textLength="224" x="362" y="173">SetEventBus(*observer.EventBus)</text><text fill="#000000" font-family="sans-serif" font-size="14" font-style="italic" lengthAdjust="spacing" textLength="139" x="362" y="189.4883">PollingInterval() uint</text></g><!--class RPCProvider--><g id="elem_RPCProvider"><rect codeLine="12" fill="#F1F1F1" height="97.4648" id="RPCProvider" rx="2.5" ry="2.5" style="stroke:#181818;stroke-width:0.5;" width="198" x="390" y="263.4883"/><ellipse cx="442.75" cy="279.4883" fill="#F1F1F1" rx="11" ry="11" style="stroke:#181818;stroke-width:1.0;"/><path d="M442.4834,280.5513 Q440.6323,279.8457 439.9766,279.0696 Q439.3208,278.2935 439.3208,276.9819 Q439.3208,275.2969 440.3999,274.334 Q441.479,273.3711 443.3633,273.3711 Q444.2183,273.3711 445.0732,273.5662 Q445.9282,273.7612 446.7666,274.1431 L446.7666,276.5337 Q445.978,275.9775 445.1646,275.687 Q444.3511,275.3965 443.5542,275.3965 Q442.666,275.3965 442.1929,275.7534 Q441.7197,276.1104 441.7197,276.7744 Q441.7197,277.2891 442.0642,277.6252 Q442.4087,277.9614 443.5044,278.3682 L444.5586,278.7666 Q446.0527,279.3145 446.7583,280.2192 Q447.4639,281.124 447.4639,282.502 Q447.4639,284.3779 446.3557,285.3035 Q445.2476,286.229 443.0063,286.229 Q442.085,286.229 441.1594,286.009 Q440.2339,285.7891 439.3706,285.3574 L439.3706,282.8257 Q440.3501,283.5229 441.2673,283.8633 Q442.1846,284.2036 443.0811,284.2036 Q443.9858,284.2036 444.4839,283.7927 Q444.9819,283.3818 444.9819,282.6431 Q444.9819,282.0869 444.6499,281.6677 Q444.3179,281.2485 443.687,281.0078 Z " fill="#000000"/><text fill="#000000" font-family="sans-serif" font-size="14" lengthAdjust="spacing" textLength="84" x="463.25" y="284.7793">RPCProvider</text><line style="stroke:#181818;stroke-width:0.5;" x1="391" x2="587" y1="295.4883" y2="295.4883"/><text fill="#000000" font-family="sans-serif" font-size="14" lengthAdjust="spacing" textLength="186" x="396" y="313.0234">Network   network.Network</text><text fill="#000000" font-family="sans-serif" font-size="14" lengthAdjust="spacing" textLength="96" x="396" y="329.5117">Label     string</text><text fill="#000000" font-family="sans-serif" font-size="14" lengthAdjust="spacing" textLength="185" x="396" y="346">bus       *observer.EventBus</text><line style="stroke:#181818;stroke-width:0.5;" x1="391" x2="587" y1="352.9531" y2="352.9531"/></g><!--class Observer--><g id="elem_Observer"><rect codeLine="27" fill="#F1F1F1" height="97.4648" id="Observer" rx="2.5" ry="2.5" style="stroke:#181818;stroke-width:0.5;" width="277" x="21.5" y="628.7283"/><ellipse cx="124.75" cy="644.7283" fill="#B4A7E5" rx="11" ry="11" style="stroke:#181818;stroke-width:1.0;"/><path d="M121.1777,640.9934 L121.1777,638.8352 L128.5571,638.8352 L128.5571,640.9934 L126.0918,640.9934 L126.0918,649.0701 L128.5571,649.0701 L128.5571,651.2283 L121.1777,651.2283 L121.1777,649.0701 L123.6431,649.0701 L123.6431,640.9934 Z " fill="#000000"/><text fill="#000000" font-family="sans-serif" font-size="14" font-style="italic" lengthAdjust="spacing" textLength="62" x="145.25" y="650.0193">Observer</text><line style="stroke:#181818;stroke-width:0.5;" x1="22.5" x2="297.5" y1="660.7283" y2="660.7283"/><line style="stroke:#181818;stroke-width:0.5;" x1="22.5" x2="297.5" y1="668.7283" y2="668.7283"/><text fill="#000000" font-family="sans-serif" font-size="14" font-style="italic" lengthAdjust="spacing" textLength="228" x="27.5" y="686.2634">Notify(context.Context, Message)</text><text fill="#000000" font-family="sans-serif" font-size="14" font-style="italic" lengthAdjust="spacing" textLength="134" x="27.5" y="702.7517">Register(*EventBus)</text><text fill="#000000" font-family="sans-serif" font-size="14" font-style="italic" lengthAdjust="spacing" textLength="265" x="27.5" y="719.24">GetCollectors() []prometheus.Collector</text></g><!--class Message--><g id="elem_Message"><rect codeLine="33" fill="#F1F1F1" height="113.9531" id="Message" rx="2.5" ry="2.5" style="stroke:#181818;stroke-width:0.5;" width="200" x="334" y="620.4883"/><ellipse cx="400.25" cy="636.4883" fill="#B4A7E5" rx="11" ry="11" style="stroke:#181818;stroke-width:1.0;"/><path d="M396.6777,632.7534 L396.6777,630.5952 L404.0571,630.5952 L404.0571,632.7534 L401.5918,632.7534 L401.5918,640.8301 L404.0571,640.8301 L404.0571,642.9883 L396.6777,642.9883 L396.6777,640.8301 L399.1431,640.8301 L399.1431,632.7534 Z " fill="#000000"/><text fill="#000000" font-family="sans-serif" font-size="14" font-style="italic" lengthAdjust="spacing" textLength="59" x="420.75" y="641.7793">Message</text><line style="stroke:#181818;stroke-width:0.5;" x1="335" x2="533" y1="652.4883" y2="652.4883"/><line style="stroke:#181818;stroke-width:0.5;" x1="335" x2="533" y1="660.4883" y2="660.4883"/><text fill="#000000" font-family="sans-serif" font-size="14" font-style="italic" lengthAdjust="spacing" textLength="116" x="340" y="678.0234">Time() time.Time</text><text fill="#000000" font-family="sans-serif" font-size="14" font-style="italic" lengthAdjust="spacing" textLength="188" x="340" y="694.5117">Network() network.Network</text><text fill="#000000" font-family="sans-serif" font-size="14" font-style="italic" lengthAdjust="spacing" textLength="111" x="340" y="711">Provider() string</text><text fill="#000000" font-family="sans-serif" font-size="14" font-style="italic" lengthAdjust="spacing" textLength="69" x="340" y="727.4883">Data() any</text></g><!--class EventBus--><g id="elem_EventBus"><rect codeLine="40" fill="#F1F1F1" height="113.9531" id="EventBus" rx="2.5" ry="2.5" style="stroke:#181818;stroke-width:0.5;" width="376" x="301" y="443.4883"/><ellipse cx="454.25" cy="459.4883" fill="#F1F1F1" rx="11" ry="11" style="stroke:#181818;stroke-width:1.0;"/><path d="M453.9834,460.5513 Q452.1323,459.8457 451.4766,459.0696 Q450.8208,458.2935 450.8208,456.9819 Q450.8208,455.2969 451.8999,454.334 Q452.979,453.3711 454.8633,453.3711 Q455.7183,453.3711 456.5732,453.5662 Q457.4282,453.7612 458.2666,454.1431 L458.2666,456.5337 Q457.478,455.9775 456.6646,455.687 Q455.8511,455.3965 455.0542,455.3965 Q454.166,455.3965 453.6929,455.7534 Q453.2197,456.1104 453.2197,456.7744 Q453.2197,457.2891 453.5642,457.6252 Q453.9087,457.9614 455.0044,458.3682 L456.0586,458.7666 Q457.5527,459.3145 458.2583,460.2192 Q458.9639,461.124 458.9639,462.502 Q458.9639,464.3779 457.8557,465.3035 Q456.7476,466.229 454.5063,466.229 Q453.585,466.229 452.6594,466.009 Q451.7339,465.7891 450.8706,465.3574 L450.8706,462.8257 Q451.8501,463.5229 452.7673,463.8633 Q453.6846,464.2036 454.5811,464.2036 Q455.4858,464.2036 455.9839,463.7927 Q456.4819,463.3818 456.4819,462.6431 Q456.4819,462.0869 456.1499,461.6677 Q455.8179,461.2485 455.187,461.0078 Z " fill="#000000"/><text fill="#000000" font-family="sans-serif" font-size="14" lengthAdjust="spacing" textLength="61" x="474.75" y="464.7793">EventBus</text><line style="stroke:#181818;stroke-width:0.5;" x1="302" x2="676" y1="475.4883" y2="475.4883"/><text fill="#000000" font-family="sans-serif" font-size="14" lengthAdjust="spacing" textLength="234" x="307" y="493.0234">observers map[string]ObserverSet</text><text fill="#000000" font-family="sans-serif" font-size="14" lengthAdjust="spacing" textLength="139" x="307" y="509.5117">jobs      chan struct{}</text><line style="stroke:#181818;stroke-width:0.5;" x1="302" x2="676" y1="516.4648" y2="516.4648"/><text fill="#000000" font-family="sans-serif" font-size="14" lengthAdjust="spacing" textLength="236" x="307" y="534">Subscribe(topic Topic, o Observer)</text><text fill="#000000" font-family="sans-serif" font-size="14" lengthAdjust="spacing" textLength="364" x="307" y="550.4883">Publish(ctx context.Context, topic Topic, m Message)</text></g><!--class EmptyBlockObserver--><g id="elem_EmptyBlockObserver"><rect codeLine="48" fill="#F1F1F1" height="64.4883" id="EmptyBlockObserver" rx="2.5" ry="2.5" style="stroke:#181818;stroke-width:0.5;" width="243" x="38.5" y="794.4383"/><ellipse cx="85.75" cy="810.4383" fill="#F1F1F1" rx="11" ry="11" style="stroke:#181818;stroke-width:1.0;"/><path d="M85.4834,811.5013 Q83.6323,810.7957 82.9766,810.0196 Q82.3208,809.2435 82.3208,807.9319 Q82.3208,806.2469 83.3999,805.284 Q84.479,804.3211 86.3633,804.3211 Q87.2183,804.3211 88.0732,804.5162 Q88.9282,804.7112 89.7666,805.0931 L89.7666,807.4837 Q88.978,806.9275 88.1646,806.637 Q87.3511,806.3465 86.5542,806.3465 Q85.666,806.3465 85.1929,806.7034 Q84.7197,807.0604 84.7197,807.7244 Q84.7197,808.2391 85.0642,808.5752 Q85.4087,808.9114 86.5044,809.3182 L87.5586,809.7166 Q89.0527,810.2645 89.7583,811.1692 Q90.4639,812.074 90.4639,813.452 Q90.4639,815.3279 89.3557,816.2535 Q88.2476,817.179 86.0063,817.179 Q85.085,817.179 84.1594,816.959 Q83.2339,816.7391 82.3706,816.3074 L82.3706,813.7757 Q83.3501,814.4729 84.2673,814.8133 Q85.1846,815.1536 86.0811,815.1536 Q86.9858,815.1536 87.4839,814.7427 Q87.9819,814.3318 87.9819,813.5931 Q87.9819,813.0369 87.6499,812.6177 Q87.3179,812.1985 86.687,811.9578 Z " fill="#000000"/><text fill="#000000" font-family="sans-serif" font-size="14" lengthAdjust="spacing" textLength="140" x="106.25" y="815.7293">EmptyBlockObserver</text><line style="stroke:#181818;stroke-width:0.5;" x1="39.5" x2="280.5" y1="826.4383" y2="826.4383"/><text fill="#000000" font-family="sans-serif" font-size="14" lengthAdjust="spacing" textLength="231" x="44.5" y="843.9734">counter *prometheus.CounterVec</text><line style="stroke:#181818;stroke-width:0.5;" x1="39.5" x2="280.5" y1="850.9266" y2="850.9266"/></g><!--class ObservableTopic--><g id="elem_ObservableTopic"><rect codeLine="21" fill="#F1F1F1" height="80.9766" id="ObservableTopic" rx="2.5" ry="2.5" style="stroke:#181818;stroke-width:0.5;" width="147" x="569.5" y="636.9783"/><ellipse cx="584.5" cy="652.9783" fill="#EB937F" rx="11" ry="11" style="stroke:#181818;stroke-width:1.0;"/><path d="M588.1143,659.4783 L580.3945,659.4783 L580.3945,647.0852 L588.1143,647.0852 L588.1143,649.2434 L582.8433,649.2434 L582.8433,651.9163 L587.6162,651.9163 L587.6162,654.0745 L582.8433,654.0745 L582.8433,657.3201 L588.1143,657.3201 Z " fill="#000000"/><text fill="#000000" font-family="sans-serif" font-size="14" lengthAdjust="spacing" textLength="115" x="598.5" y="658.2693">ObservableTopic</text><line style="stroke:#181818;stroke-width:0.5;" x1="570.5" x2="715.5" y1="668.9783" y2="668.9783"/><text fill="#000000" font-family="sans-serif" font-size="14" lengthAdjust="spacing" textLength="94" x="575.5" y="686.5134">NewEVMBlock</text><text fill="#000000" font-family="sans-serif" font-size="14" lengthAdjust="spacing" textLength="87" x="575.5" y="703.0017">BlockInterval</text><line style="stroke:#181818;stroke-width:0.5;" x1="570.5" x2="715.5" y1="709.9548" y2="709.9548"/></g><!--reverse link Provider to RPCProvider--><g id="link_Provider_RPCProvider"><path d="M489,217.3183 C489,236.9883 489,240.7183 489,259.7383 " fill="none" id="Provider-backto-RPCProvider" style="stroke:#181818;stroke-width:1.0;stroke-dasharray:7.0,7.0;"/><polygon fill="none" points="489,199.3183,483,217.3183,495,217.3183,489,199.3183" style="stroke:#181818;stroke-width:1.0;"/></g><!--link Provider to RPCProvider--><g id="link_Provider_RPCProvider"><path codeLine="54" d="M623,166.9883 C701.36,166.9883 679.36,339.9883 601,339.9883 " fill="none" id="Provider-to-RPCProvider" style="stroke:#181818;stroke-width:1.0;"/><polygon fill="#181818" points="589,339.9883,595,343.9883,601,339.9883,595,335.9883,589,339.9883" style="stroke:#181818;stroke-width:1.0;"/></g><!--reverse link Observer to EmptyBlockObserver--><g id="link_Observer_EmptyBlockObserver"><path d="M160,744.6683 C160,766.8083 160,774.4383 160,794.0783 " fill="none" id="Observer-backto-EmptyBlockObserver" style="stroke:#181818;stroke-width:1.0;stroke-dasharray:7.0,7.0;"/><polygon fill="none" points="160,726.6683,154,744.6683,166,744.6683,160,726.6683" style="stroke:#181818;stroke-width:1.0;"/></g><!--reverse link RPCProvider to EventBus--><g id="link_RPCProvider_EventBus"><path codeLine="53" d="M601,339.9883 C649.91,339.9883 595.18,394.5783 551.4,439.7783 " fill="none" id="RPCProvider-backto-EventBus" style="stroke:#181818;stroke-width:1.0;"/><polygon fill="#181818" points="589,339.9883,595,343.9883,601,339.9883,595,335.9883,589,339.9883" style="stroke:#181818;stroke-width:1.0;"/></g><!--link EventBus to ObservableTopic--><g id="link_EventBus_ObservableTopic"><path codeLine="55" d="M678,527.9883 C722.76,527.9883 699.1501,582.2945 673.8701,626.2745 " fill="none" id="EventBus-to-ObservableTopic" style="stroke:#181818;stroke-width:1.0;"/><polygon fill="#181818" points="667.89,636.6783,674.348,633.4698,673.8701,626.2745,667.4122,629.483,667.89,636.6783" style="stroke:#181818;stroke-width:1.0;"/></g><!--link EventBus to ObservableTopic--><g id="link_EventBus_ObservableTopic"><path codeLine="57" d="M678,544.9883 C716.38,544.9883 698.0668,587.6402 675.0868,626.3402 " fill="none" id="EventBus-to-ObservableTopic-1" style="stroke:#181818;stroke-width:1.0;"/><polygon fill="#181818" points="668.96,636.6583,675.4628,633.5415,675.0868,626.3402,668.5841,629.457,668.96,636.6583" style="stroke:#181818;stroke-width:1.0;"/></g><!--link EventBus to Observer--><g id="link_EventBus_Observer"><path codeLine="56" d="M300,527.9883 C243.84,527.9883 209.0948,574.251 186.5548,617.611 " fill="none" id="EventBus-to-Observer" style="stroke:#181818;stroke-width:1.0;"/><polygon fill="#181818" points="181.02,628.2583,187.3365,624.7796,186.5548,617.611,180.2383,621.0897,181.02,628.2583" style="stroke:#181818;stroke-width:1.0;"/></g><!--link EventBus to Message--><g id="link_EventBus_Message"><path codeLine="58" d="M300,544.9883 C277.1,544.9883 310.4628,576.9284 353.5628,612.6684 " fill="none" id="EventBus-to-Message" style="stroke:#181818;stroke-width:1.0;"/><polygon fill="#181818" points="362.8,620.3283,360.7347,613.4193,353.5628,612.6684,355.6281,619.5774,362.8,620.3283" style="stroke:#181818;stroke-width:1.0;"/></g><!--SRC=[ZLFBRkCm33ollu97ssZy0JqsBHOBz14qHIz53xAMITJ8bY7HQOCW_xwK_8ozYwuEja0EoI678aKQOQc5St2hnDQA8eeg8VTYYr1PSr2_qS8f0b0beTq8YR0Qp3y0JY9tP8MaCppZngBRhKaGnj9mm1Tbo-QV05fhx2HYLUTQkTtT0Kjo_nUoHWhmczh5gSaTsWFQh3Cbqm96QrLkVtdo1w7Z16fkXDivH_nXL2q9dbVBlYTLL1eBJsVIvoFIfx5x02YRMzPQlFDUvAZ17qx9zRmjhnqqPqxJ4u3eF8owGuHHTqOobP8kc02mh0ju2Z2HQtpnljRboNtUlJxSQ2FthINSkxQ3xTnrFIZvD5Iz7DkZ8RKvJWMvWWTqZfabC-6tod7IEFsN3Z-HbYm5IZBMiGflxxnS1T8EQvVrdZd3jk2Cu8igaDCG_p9_d_9lf674NyGQhqShCGC7uKR-Mq62VQ8yJbQcwxCXrgdde13LMvFflHikBwp7V32eaKRkHDdcEOMS0EiwTzAg7EEWEGHrhy3q2YK1rZwNMD8NpBIvY2m6gIR4YugEOJbwyKShVxaGqjHU24Wlj0gsLvGXCQSUlPxhQx_qwMBHpoSQNAE72uj52jEugFCoj1j704wM_XiSsX6W7TWtQSQeTcpH7m00]--></g></svg>